<?xml version="1.0" encoding="UTF-8"?>
<svg id="Layer_1" xmlns="http://www.w3.org/2000/svg" version="1.1" viewBox="0 0 792 612">
  <!-- Generator: Adobe Illustrator 29.3.1, SVG Export Plug-In . SVG Version: 2.1.0 Build 151)  -->
  <defs>
    <style>
      .st0 {
        fill: #fff;
      }

      .st1 {
        fill: #666;
      }
    </style>
  </defs>
  <path class="st1" d="M525.06,302.99v-17.98c0-7.72,6.26-13.99,13.99-13.99h41.92c-8.64-19.14-27.88-32.48-50.24-32.48-25.28,0-46.57,17.03-53.06,40.23h-188.76c-7.66-21.22-27.98-36.4-51.85-36.4-30.44,0-55.11,24.67-55.11,55.11s24.67,55.11,55.11,55.11c23.87,0,44.18-15.17,51.85-36.4h191.53c8.62,19.19,27.88,32.56,50.28,32.56s41.15-13.01,49.93-31.79h-41.61c-7.72,0-13.99-6.26-13.99-13.99Z"/>
  <circle class="st0" cx="236.87" cy="298.48" r="27.59"/>
</svg>